<?xml version="1.0" encoding="iso-8859-1"?>
<!-- Generator: Adobe Illustrator 19.0.0, SVG Export Plug-In . SVG Version: 6.00 Build 0)  -->
<svg version="1.1" id="Layer_1" xmlns="http://www.w3.org/2000/svg" xmlns:xlink="http://www.w3.org/1999/xlink" x="0px" y="0px"
	 viewBox="0 0 512 512" style="enable-background:new 0 0 512 512;" xml:space="preserve" opacity="0.4">
<g>
	<polygon style="fill:#F95428;" points="391.24,381.332 391.24,456.957 351.941,456.957 312.641,456.957 312.641,381.332 	"/>
	<rect x="312.636" y="255.404" style="fill:#F95428;" width="78.6" height="80.452"/>
	<rect x="312.636" y="55.042" style="fill:#F95428;" width="78.6" height="60.342"/>
</g>
<g>
	<rect x="313.119" y="381.332" style="fill:#E54728;" width="25.448" height="75.624"/>
	<rect x="313.119" y="176.142" style="fill:#E54728;" width="25.448" height="159.715"/>
	<polygon style="fill:#E54728;" points="338.571,55.042 338.571,130.667 313.122,130.667 313.122,55.042 325.847,55.042 	"/>
</g>
<path style="fill:#4D4D4D;" d="M443.038,135.82v99.148c0,11.285-9.151,20.436-20.447,20.436h-31.35h-78.6h-35.684h-30.643
	c-11.285,0-20.436-9.151-20.436-20.436v-58.826V135.82c0-1.774,0.225-3.503,0.651-5.154c2.291-8.792,10.274-15.282,19.785-15.282
	h30.643h35.684h78.6h31.35C433.886,115.384,443.038,124.536,443.038,135.82z M414.966,227.333v-83.877H253.949v83.877H414.966z"/>
<rect x="253.945" y="143.456" style="fill:#E6E6E6;" width="161.017" height="83.877"/>
<polygon style="fill:#808080;" points="406.354,335.857 406.354,381.332 391.24,381.332 312.641,381.332 276.956,381.332 
	198.357,381.332 162.672,381.332 84.073,381.332 68.97,381.332 68.97,335.857 84.073,335.857 162.672,335.857 198.357,335.857 
	276.956,335.857 312.641,335.857 391.24,335.857 "/>
<polygon style="fill:#666666;" points="99.552,335.857 99.552,381.332 98.182,381.332 91.058,381.332 87.823,381.332 
	80.698,381.332 77.463,381.332 70.339,381.332 68.97,381.332 68.97,335.857 70.339,335.857 77.463,335.857 80.698,335.857 
	87.823,335.857 91.058,335.857 98.182,335.857 "/>
<g>
	<polygon style="fill:#F95428;" points="276.956,381.332 276.956,456.957 237.657,456.957 198.357,456.957 198.357,381.332 	"/>
	<path style="fill:#F95428;" d="M276.956,255.404v80.452h-78.6V176.142h27.521v58.826c0,11.285,9.151,20.436,20.436,20.436
		L276.956,255.404L276.956,255.404z"/>
	<path style="fill:#F95428;" d="M276.956,55.042v60.342h-30.643c-9.511,0-17.494,6.49-19.785,15.282h-0.011h-28.161V55.042h39.3
		H276.956z"/>
</g>
<path style="fill:#E54728;" d="M312.641,260.446v28.071h78.6v-28.071L312.641,260.446L312.641,260.446z M253.949,255.404h-7.635
	c-11.285,0-20.436-9.151-20.436-20.436v33.113c0,11.285,9.151,20.436,20.436,20.436h30.643v-28.071h-23.007L253.949,255.404
	L253.949,255.404z"/>
<path style="fill:#808080;" d="M226.518,130.667h0.011c-0.427,1.651-0.651,3.38-0.651,5.154v40.322h-0.011h-27.51h-35.684h-78.6
	H68.959v-45.476h15.114h78.6h35.684C198.357,130.667,226.518,130.667,226.518,130.667z"/>
<rect x="84.073" y="381.332" style="fill:#F95428;" width="78.6" height="75.624"/>
<polygon style="fill:#666666;" points="99.552,130.667 99.552,176.142 98.182,176.142 91.058,176.142 87.823,176.142 
	80.698,176.142 77.463,176.142 70.339,176.142 68.97,176.142 68.97,130.667 70.339,130.667 77.463,130.667 80.698,130.667 
	87.823,130.667 91.058,130.667 98.182,130.667 "/>
<g>
	<rect x="84.073" y="176.142" style="fill:#F95428;" width="78.6" height="159.715"/>
	<polygon style="fill:#F95428;" points="162.672,55.042 162.672,130.667 84.073,130.667 84.073,55.042 123.372,55.042 	"/>
</g>
<g>
	<rect x="84.073" y="381.332" style="fill:#E54728;" width="25.448" height="75.624"/>
	<rect x="84.073" y="176.142" style="fill:#E54728;" width="25.448" height="159.715"/>
	<rect x="84.073" y="176.142" style="fill:#E54728;" width="78.6" height="22.524"/>
	<rect x="84.073" y="381.332" style="fill:#E54728;" width="78.6" height="22.524"/>
	<rect x="198.352" y="381.332" style="fill:#E54728;" width="78.6" height="22.524"/>
	<rect x="312.636" y="381.332" style="fill:#E54728;" width="78.6" height="22.524"/>
	<polygon style="fill:#E54728;" points="109.52,55.042 109.52,130.667 84.073,130.667 84.073,55.042 96.797,55.042 	"/>
	<rect x="199.396" y="381.332" style="fill:#E54728;" width="25.448" height="75.624"/>
	<rect x="199.396" y="176.142" style="fill:#E54728;" width="25.448" height="159.715"/>
	<polygon style="fill:#E54728;" points="224.841,55.042 224.841,130.667 199.393,130.667 199.393,55.042 212.117,55.042 	"/>
</g>
<g>
	<path style="fill:#333333;" d="M422.595,106.96h-22.931V55.042c0-4.651-3.769-8.421-8.421-8.421h-78.6
		c-4.652,0-8.421,3.771-8.421,8.421v51.917h-18.84V55.042c0-4.651-3.769-8.421-8.421-8.421h-30.878V27.425
		C246.081,12.303,233.779,0,218.657,0h-76.279c-15.123,0-27.425,12.303-27.425,27.425v19.196H84.075
		c-4.652,0-8.421,3.771-8.421,8.421v67.203h-6.692c-4.652,0-8.421,3.771-8.421,8.421v45.476c0,4.651,3.769,8.421,8.421,8.421h6.692
		v142.871h-6.688c-4.652,0-8.421,3.771-8.421,8.421v45.473c0,4.651,3.769,8.421,8.421,8.421h6.688v67.206
		c0,4.651,3.769,8.421,8.421,8.421h78.6c4.652,0,8.421-3.771,8.421-8.421V389.75h18.841v67.206c0,4.651,3.769,8.421,8.421,8.421
		h30.876v19.199c0,15.121,12.302,27.423,27.425,27.423h76.279c15.123,0,27.425-12.302,27.425-27.423v-19.199h30.88
		c4.652,0,8.421-3.771,8.421-8.421V389.75h6.689c4.652,0,8.421-3.771,8.421-8.421v-45.473c0-4.651-3.769-8.421-8.421-8.421h-6.689
		V263.83h22.931c15.916,0,28.865-12.949,28.865-28.865v-99.141C451.46,119.908,438.511,106.96,422.595,106.96z M321.064,63.464
		h61.757v43.496h-61.757V63.464z M268.538,106.96h-22.221c-11.01,0-20.597,6.198-25.463,15.285h-14.073V63.464h61.757V106.96z
		 M397.932,344.277v28.631H77.387v-28.631H397.932z M77.384,167.721v-28.633h140.068v28.633H77.384z M189.939,184.563v142.871
		h-18.841V184.563H189.939z M285.381,327.434V263.83h18.84v63.604H285.381z M268.538,327.434h-61.757V184.563h10.67v50.403
		c0,15.916,12.949,28.865,28.865,28.865h22.221V327.434L268.538,327.434z M131.796,27.425c0-5.834,4.747-10.582,10.582-10.582
		h76.279c5.834,0,10.582,4.747,10.582,10.582v19.196H198.36c-4.652,0-8.421,3.771-8.421,8.421v67.203h-18.841V55.042
		c0-4.651-3.769-8.421-8.421-8.421h-30.878V27.425H131.796z M92.496,63.464h61.757v58.781H92.496
		C92.496,122.245,92.496,63.464,92.496,63.464z M92.496,184.563h61.757v142.871H92.496
		C92.496,327.434,92.496,184.563,92.496,184.563z M154.253,448.535H92.496V389.75h61.757V448.535z M206.781,389.75h61.757v58.785
		h-61.757V389.75z M343.52,484.577c0,5.834-4.747,10.581-10.582,10.581H256.66c-5.834,0-10.582-4.747-10.582-10.581v-19.199h30.881
		c4.652,0,8.421-3.771,8.421-8.421V389.75h18.84v67.206c0,4.651,3.769,8.421,8.421,8.421h30.877v19.199H343.52z M382.821,448.535
		h-61.757V389.75h61.757V448.535z M382.821,327.434h-61.757V263.83h61.757V327.434z M434.617,234.966
		c0,6.629-5.393,12.022-12.022,12.022H246.317c-6.629,0-12.022-5.393-12.022-12.022v-99.141c0-6.629,5.393-12.022,12.022-12.022
		h176.278c6.629,0,12.022,5.393,12.022,12.022V234.966z"/>
	<path style="fill:#333333;" d="M414.967,135.03H253.945c-4.652,0-8.421,3.771-8.421,8.421v83.886c0,4.651,3.769,8.421,8.421,8.421
		h161.023c4.652,0,8.421-3.771,8.421-8.421v-83.886C423.389,138.8,419.619,135.03,414.967,135.03z M406.546,218.916h-144.18v-67.043
		h144.18V218.916z"/>
	<path style="fill:#333333;" d="M359.721,206.8h27.348c4.652,0,8.421-3.771,8.421-8.421c0-4.651-3.769-8.421-8.421-8.421h-27.348
		c-4.652,0-8.421,3.771-8.421,8.421C351.299,203.03,355.069,206.8,359.721,206.8z"/>
</g>
<g>
</g>
<g>
</g>
<g>
</g>
<g>
</g>
<g>
</g>
<g>
</g>
<g>
</g>
<g>
</g>
<g>
</g>
<g>
</g>
<g>
</g>
<g>
</g>
<g>
</g>
<g>
</g>
<g>
</g>
</svg>
